<?xml version="1.0" encoding="UTF-8" standalone="no"?>
<!DOCTYPE svg PUBLIC "-//W3C//DTD SVG 1.1//EN" "http://www.w3.org/Graphics/SVG/1.1/DTD/svg11.dtd">
<!-- Generated by Microsoft Visio, SVG Export Meta-Hack-Lab.svg Page-1 -->
<svg xmlns="http://www.w3.org/2000/svg" xmlns:xlink="http://www.w3.org/1999/xlink" xmlns:ev="http://www.w3.org/2001/xml-events"
		xmlns:v="http://schemas.microsoft.com/visio/2003/SVGExtensions/" width="11in" height="8.5in" viewBox="0 0 792 612"
		xml:space="preserve" color-interpolation-filters="sRGB" class="st7">
	<v:documentProperties v:langID="1033" v:viewMarkup="false">
		<v:userDefs>
			<v:ud v:nameU="msvNoAutoConnect" v:val="VT0(1):26"/>
		</v:userDefs>
	</v:documentProperties>

	<style type="text/css">
	<![CDATA[
		.st1 {fill:#ffffff;stroke:#000000;stroke-linecap:round;stroke-linejoin:round;stroke-width:0.75}
		.st2 {fill:#31859b;font-family:Calibri;font-size:1.00001em}
		.st3 {fill:#000000;font-family:Calibri;font-size:0.499992em}
		.st4 {font-size:1em}
		.st5 {fill:#000000;font-family:Calibri;font-size:0.833336em}
		.st6 {stroke:#000000;stroke-linecap:round;stroke-linejoin:round;stroke-width:0.75}
		.st7 {fill:none;fill-rule:evenodd;font-size:12px;overflow:visible;stroke-linecap:square;stroke-miterlimit:3}
	]]>
	</style>

	<g v:mID="0" v:index="1" v:groupContext="foregroundPage">
		<title>Page-1</title>
		<v:pageProperties v:drawingScale="1" v:pageScale="1" v:drawingUnits="19" v:shadowOffsetX="9" v:shadowOffsetY="-9"/>
		<v:layer v:name="Connector" v:index="0"/>
		<g id="shape1-1" v:mID="1" v:groupContext="shape" transform="translate(234,-495)">
			<title>Sheet.1</title>
			<desc>atsw001</desc>
			<v:textBlock v:margins="rect(4,4,4,4)"/>
			<v:textRect cx="54" cy="589.5" width="108.01" height="45"/>
			<rect x="0" y="567" width="108" height="45" class="st1"/>
			<text x="33.36" y="593.1" class="st2" v:langID="1033"><v:paragraph v:horizAlign="1"/><v:tabList/>atsw001</text>		</g>
		<g id="shape2-4" v:mID="2" v:groupContext="shape" transform="translate(450,-495)">
			<title>Sheet.2</title>
			<desc>atsw002</desc>
			<v:textBlock v:margins="rect(4,4,4,4)"/>
			<v:textRect cx="54" cy="589.5" width="108.01" height="45"/>
			<rect x="0" y="567" width="108" height="45" class="st1"/>
			<text x="33.36" y="593.1" class="st2" v:langID="1033"><v:paragraph v:horizAlign="1"/><v:tabList/>atsw002</text>		</g>
		<g id="shape7-7" v:mID="7" v:groupContext="shape" transform="translate(99,-360)">
			<title>Sheet.7</title>
			<desc>ctsw001</desc>
			<v:textBlock v:margins="rect(4,4,4,4)"/>
			<v:textRect cx="54" cy="589.5" width="108.01" height="45"/>
			<rect x="0" y="567" width="108" height="45" class="st1"/>
			<text x="33.69" y="593.1" class="st2" v:langID="1033"><v:paragraph v:horizAlign="1"/><v:tabList/>ctsw001</text>		</g>
		<g id="shape10-10" v:mID="10" v:groupContext="shape" transform="translate(117,-405)">
			<title>Sheet.10</title>
			<desc>33-42</desc>
			<v:textBlock v:margins="rect(4,4,4,4)"/>
			<v:textRect cx="9" cy="603" width="18.01" height="18"/>
			<rect x="0" y="594" width="18" height="18" class="st1"/>
			<text x="5.04" y="601.2" class="st3" v:langID="1033"><v:paragraph v:horizAlign="1"/><v:tabList/>33-<tspan x="5.96"
						dy="1.2em" class="st4">42</tspan></text>		</g>
		<g id="shape11-14" v:mID="11" v:groupContext="shape" transform="translate(171,-405)">
			<title>Sheet.11</title>
			<desc>43-52</desc>
			<v:textBlock v:margins="rect(4,4,4,4)"/>
			<v:textRect cx="9" cy="603" width="18.01" height="18"/>
			<rect x="0" y="594" width="18" height="18" class="st1"/>
			<text x="5.04" y="601.2" class="st3" v:langID="1033"><v:paragraph v:horizAlign="1"/><v:tabList/>43-<tspan x="5.96"
						dy="1.2em" class="st4">52</tspan></text>		</g>
		<g id="shape12-18" v:mID="12" v:groupContext="shape" transform="translate(261,-360)">
			<title>Sheet.12</title>
			<desc>ctsw002</desc>
			<v:textBlock v:margins="rect(4,4,4,4)"/>
			<v:textRect cx="54" cy="589.5" width="108.01" height="45"/>
			<rect x="0" y="567" width="108" height="45" class="st1"/>
			<text x="33.69" y="593.1" class="st2" v:langID="1033"><v:paragraph v:horizAlign="1"/><v:tabList/>ctsw002</text>		</g>
		<g id="shape14-21" v:mID="14" v:groupContext="shape" transform="translate(306,-342)">
			<title>Sheet.14</title>
			<desc>1-20</desc>
			<v:textBlock v:margins="rect(4,4,4,4)"/>
			<v:textRect cx="9" cy="603" width="18.01" height="18"/>
			<rect x="0" y="594" width="18" height="18" class="st1"/>
			<text x="6.56" y="601.2" class="st3" v:langID="1033"><v:paragraph v:horizAlign="1"/><v:tabList/>1-<tspan x="5.96"
						dy="1.2em" class="st4">20</tspan></text>		</g>
		<g id="shape15-25" v:mID="15" v:groupContext="shape" transform="translate(279,-405)">
			<title>Sheet.15</title>
			<desc>33-42</desc>
			<v:textBlock v:margins="rect(4,4,4,4)"/>
			<v:textRect cx="9" cy="603" width="18.01" height="18"/>
			<rect x="0" y="594" width="18" height="18" class="st1"/>
			<text x="5.04" y="601.2" class="st3" v:langID="1033"><v:paragraph v:horizAlign="1"/><v:tabList/>33-<tspan x="5.96"
						dy="1.2em" class="st4">42</tspan></text>		</g>
		<g id="shape16-29" v:mID="16" v:groupContext="shape" transform="translate(333,-405)">
			<title>Sheet.16</title>
			<desc>43-52</desc>
			<v:textBlock v:margins="rect(4,4,4,4)"/>
			<v:textRect cx="9" cy="603" width="18.01" height="18"/>
			<rect x="0" y="594" width="18" height="18" class="st1"/>
			<text x="5.04" y="601.2" class="st3" v:langID="1033"><v:paragraph v:horizAlign="1"/><v:tabList/>43-<tspan x="5.96"
						dy="1.2em" class="st4">52</tspan></text>		</g>
		<g id="shape17-33" v:mID="17" v:groupContext="shape" transform="translate(702,414) rotate(90)">
			<title>Sheet.17</title>
			<desc>GT001</desc>
			<v:textBlock v:margins="rect(4,4,4,4)"/>
			<v:textRect cx="27" cy="603" width="54.01" height="18"/>
			<rect x="0" y="594" width="54" height="18" class="st1"/>
			<text x="13.81" y="606" class="st5" v:langID="1033"><v:paragraph v:horizAlign="1"/><v:tabList/>GT001</text>		</g>
		<g id="shape34-36" v:mID="34" v:groupContext="shape" transform="translate(234,-477)">
			<title>Sheet.34</title>
			<desc>1-10</desc>
			<v:textBlock v:margins="rect(4,4,4,4)"/>
			<v:textRect cx="9" cy="603" width="18.01" height="18"/>
			<rect x="0" y="594" width="18" height="18" class="st1"/>
			<text x="6.56" y="601.2" class="st3" v:langID="1033"><v:paragraph v:horizAlign="1"/><v:tabList/>1-<tspan x="5.96"
						dy="1.2em" class="st4">10</tspan></text>		</g>
		<g id="shape35-40" v:mID="35" v:groupContext="shape" transform="translate(263.25,-477)">
			<title>Sheet.35</title>
			<desc>11-20</desc>
			<v:textBlock v:margins="rect(4,4,4,4)"/>
			<v:textRect cx="9" cy="603" width="18.01" height="18"/>
			<rect x="0" y="594" width="18" height="18" class="st1"/>
			<text x="5.04" y="601.2" class="st3" v:langID="1033"><v:paragraph v:horizAlign="1"/><v:tabList/>11-<tspan x="5.96"
						dy="1.2em" class="st4">20</tspan></text>		</g>
		<g id="shape36-44" v:mID="36" v:groupContext="shape" transform="translate(294.75,-477)">
			<title>Sheet.36</title>
			<desc>21-30</desc>
			<v:textBlock v:margins="rect(4,4,4,4)"/>
			<v:textRect cx="9" cy="603" width="18.01" height="18"/>
			<rect x="0" y="594" width="18" height="18" class="st1"/>
			<text x="5.04" y="601.2" class="st3" v:langID="1033"><v:paragraph v:horizAlign="1"/><v:tabList/>21-<tspan x="5.96"
						dy="1.2em" class="st4">30</tspan></text>		</g>
		<g id="shape37-48" v:mID="37" v:groupContext="shape" transform="translate(324,-477)">
			<title>Sheet.37</title>
			<desc>31-40</desc>
			<v:textBlock v:margins="rect(4,4,4,4)"/>
			<v:textRect cx="9" cy="603" width="18.01" height="18"/>
			<rect x="0" y="594" width="18" height="18" class="st1"/>
			<text x="5.04" y="601.2" class="st3" v:langID="1033"><v:paragraph v:horizAlign="1"/><v:tabList/>31-<tspan x="5.96"
						dy="1.2em" class="st4">40</tspan></text>		</g>
		<g id="shape38-52" v:mID="38" v:groupContext="shape" transform="translate(450,-477)">
			<title>Sheet.38</title>
			<desc>1-10</desc>
			<v:textBlock v:margins="rect(4,4,4,4)"/>
			<v:textRect cx="9" cy="603" width="18.01" height="18"/>
			<rect x="0" y="594" width="18" height="18" class="st1"/>
			<text x="6.56" y="601.2" class="st3" v:langID="1033"><v:paragraph v:horizAlign="1"/><v:tabList/>1-<tspan x="5.96"
						dy="1.2em" class="st4">10</tspan></text>		</g>
		<g id="shape39-56" v:mID="39" v:groupContext="shape" transform="translate(479.25,-477)">
			<title>Sheet.39</title>
			<desc>11-20</desc>
			<v:textBlock v:margins="rect(4,4,4,4)"/>
			<v:textRect cx="9" cy="603" width="18.01" height="18"/>
			<rect x="0" y="594" width="18" height="18" class="st1"/>
			<text x="5.04" y="601.2" class="st3" v:langID="1033"><v:paragraph v:horizAlign="1"/><v:tabList/>11-<tspan x="5.96"
						dy="1.2em" class="st4">20</tspan></text>		</g>
		<g id="shape40-60" v:mID="40" v:groupContext="shape" transform="translate(510.75,-477)">
			<title>Sheet.40</title>
			<desc>21-30</desc>
			<v:textBlock v:margins="rect(4,4,4,4)"/>
			<v:textRect cx="9" cy="603" width="18.01" height="18"/>
			<rect x="0" y="594" width="18" height="18" class="st1"/>
			<text x="5.04" y="601.2" class="st3" v:langID="1033"><v:paragraph v:horizAlign="1"/><v:tabList/>21-<tspan x="5.96"
						dy="1.2em" class="st4">30</tspan></text>		</g>
		<g id="shape41-64" v:mID="41" v:groupContext="shape" transform="translate(540,-477)">
			<title>Sheet.41</title>
			<desc>31-40</desc>
			<v:textBlock v:margins="rect(4,4,4,4)"/>
			<v:textRect cx="9" cy="603" width="18.01" height="18"/>
			<rect x="0" y="594" width="18" height="18" class="st1"/>
			<text x="5.04" y="601.2" class="st3" v:langID="1033"><v:paragraph v:horizAlign="1"/><v:tabList/>31-<tspan x="5.96"
						dy="1.2em" class="st4">40</tspan></text>		</g>
		<g id="shape42-68" v:mID="42" v:groupContext="shape" transform="translate(423,-360)">
			<title>Sheet.42</title>
			<desc>ctsw003</desc>
			<v:textBlock v:margins="rect(4,4,4,4)"/>
			<v:textRect cx="54" cy="589.5" width="108.01" height="45"/>
			<rect x="0" y="567" width="108" height="45" class="st1"/>
			<text x="33.69" y="593.1" class="st2" v:langID="1033"><v:paragraph v:horizAlign="1"/><v:tabList/>ctsw003</text>		</g>
		<g id="shape43-71" v:mID="43" v:groupContext="shape" transform="translate(468,-342)">
			<title>Sheet.43</title>
			<desc>1-20</desc>
			<v:textBlock v:margins="rect(4,4,4,4)"/>
			<v:textRect cx="9" cy="603" width="18.01" height="18"/>
			<rect x="0" y="594" width="18" height="18" class="st1"/>
			<text x="6.56" y="601.2" class="st3" v:langID="1033"><v:paragraph v:horizAlign="1"/><v:tabList/>1-<tspan x="5.96"
						dy="1.2em" class="st4">20</tspan></text>		</g>
		<g id="shape45-75" v:mID="45" v:groupContext="shape" transform="translate(441,-405)">
			<title>Sheet.45</title>
			<desc>33-42</desc>
			<v:textBlock v:margins="rect(4,4,4,4)"/>
			<v:textRect cx="9" cy="603" width="18.01" height="18"/>
			<rect x="0" y="594" width="18" height="18" class="st1"/>
			<text x="5.04" y="601.2" class="st3" v:langID="1033"><v:paragraph v:horizAlign="1"/><v:tabList/>33-<tspan x="5.96"
						dy="1.2em" class="st4">42</tspan></text>		</g>
		<g id="shape46-79" v:mID="46" v:groupContext="shape" transform="translate(495,-405)">
			<title>Sheet.46</title>
			<desc>43-52</desc>
			<v:textBlock v:margins="rect(4,4,4,4)"/>
			<v:textRect cx="9" cy="603" width="18.01" height="18"/>
			<rect x="0" y="594" width="18" height="18" class="st1"/>
			<text x="5.04" y="601.2" class="st3" v:langID="1033"><v:paragraph v:horizAlign="1"/><v:tabList/>43-<tspan x="5.96"
						dy="1.2em" class="st4">52</tspan></text>		</g>
		<g id="shape47-83" v:mID="47" v:groupContext="shape" transform="translate(585,-360)">
			<title>Sheet.47</title>
			<desc>ctsw004</desc>
			<v:textBlock v:margins="rect(4,4,4,4)"/>
			<v:textRect cx="54" cy="589.5" width="108.01" height="45"/>
			<rect x="0" y="567" width="108" height="45" class="st1"/>
			<text x="33.69" y="593.1" class="st2" v:langID="1033"><v:paragraph v:horizAlign="1"/><v:tabList/>ctsw004</text>		</g>
		<g id="shape48-86" v:mID="48" v:groupContext="shape" transform="translate(630,-342)">
			<title>Sheet.48</title>
			<desc>1-20</desc>
			<v:textBlock v:margins="rect(4,4,4,4)"/>
			<v:textRect cx="9" cy="603" width="18.01" height="18"/>
			<rect x="0" y="594" width="18" height="18" class="st1"/>
			<text x="6.56" y="601.2" class="st3" v:langID="1033"><v:paragraph v:horizAlign="1"/><v:tabList/>1-<tspan x="5.96"
						dy="1.2em" class="st4">20</tspan></text>		</g>
		<g id="shape50-90" v:mID="50" v:groupContext="shape" transform="translate(603,-405)">
			<title>Sheet.50</title>
			<desc>33-42</desc>
			<v:textBlock v:margins="rect(4,4,4,4)"/>
			<v:textRect cx="9" cy="603" width="18.01" height="18"/>
			<rect x="0" y="594" width="18" height="18" class="st1"/>
			<text x="5.04" y="601.2" class="st3" v:langID="1033"><v:paragraph v:horizAlign="1"/><v:tabList/>33-<tspan x="5.96"
						dy="1.2em" class="st4">42</tspan></text>		</g>
		<g id="shape51-94" v:mID="51" v:groupContext="shape" transform="translate(657,-405)">
			<title>Sheet.51</title>
			<desc>43-52</desc>
			<v:textBlock v:margins="rect(4,4,4,4)"/>
			<v:textRect cx="9" cy="603" width="18.01" height="18"/>
			<rect x="0" y="594" width="18" height="18" class="st1"/>
			<text x="5.04" y="601.2" class="st3" v:langID="1033"><v:paragraph v:horizAlign="1"/><v:tabList/>43-<tspan x="5.96"
						dy="1.2em" class="st4">52</tspan></text>		</g>
		<g id="shape1005-98" v:mID="1005" v:groupContext="shape" transform="translate(144,-342)">
			<title>Sheet.1005</title>
			<desc>1-20</desc>
			<v:textBlock v:margins="rect(4,4,4,4)"/>
			<v:textRect cx="9" cy="603" width="18.01" height="18"/>
			<rect x="0" y="594" width="18" height="18" class="st1"/>
			<text x="6.56" y="601.2" class="st3" v:langID="1033"><v:paragraph v:horizAlign="1"/><v:tabList/>1-<tspan x="5.96"
						dy="1.2em" class="st4">20</tspan></text>		</g>
		<g id="shape1008-102" v:mID="1008" v:groupContext="shape" transform="translate(99,-261)">
			<title>Sheet.1008</title>
			<desc>rtsw001</desc>
			<v:textBlock v:margins="rect(4,4,4,4)"/>
			<v:textRect cx="54" cy="589.5" width="108.01" height="45"/>
			<rect x="0" y="567" width="108" height="45" class="st1"/>
			<text x="34.14" y="593.1" class="st2" v:langID="1033"><v:paragraph v:horizAlign="1"/><v:tabList/>rtsw001</text>		</g>
		<g id="shape1009-105" v:mID="1009" v:groupContext="shape" transform="translate(90,-243)">
			<title>Sheet.1009</title>
			<desc>1-4</desc>
			<v:textBlock v:margins="rect(4,4,4,4)"/>
			<v:textRect cx="9" cy="603" width="18.01" height="18"/>
			<rect x="0" y="594" width="18" height="18" class="st1"/>
			<text x="5.04" y="604.8" class="st3" v:langID="1033"><v:paragraph v:horizAlign="1"/><v:tabList/>1-4</text>		</g>
		<g id="shape1010-108" v:mID="1010" v:groupContext="shape" transform="translate(117,-243)">
			<title>Sheet.1010</title>
			<desc>5-8</desc>
			<v:textBlock v:margins="rect(4,4,4,4)"/>
			<v:textRect cx="9" cy="603" width="18.01" height="18"/>
			<rect x="0" y="594" width="18" height="18" class="st1"/>
			<text x="5.04" y="604.8" class="st3" v:langID="1033"><v:paragraph v:horizAlign="1"/><v:tabList/>5-8</text>		</g>
		<g id="shape1012-111" v:mID="1012" v:groupContext="shape" transform="translate(144,-306)">
			<title>Sheet.1012</title>
			<desc>33-52</desc>
			<v:textBlock v:margins="rect(4,4,4,4)"/>
			<v:textRect cx="9" cy="603" width="18.01" height="18"/>
			<rect x="0" y="594" width="18" height="18" class="st1"/>
			<text x="5.04" y="601.2" class="st3" v:langID="1033"><v:paragraph v:horizAlign="1"/><v:tabList/>33-<tspan x="5.96"
						dy="1.2em" class="st4">52</tspan></text>		</g>
		<g id="shape1013-115" v:mID="1013" v:groupContext="shape" transform="translate(144,-243)">
			<title>Sheet.1013</title>
			<desc>9-12</desc>
			<v:textBlock v:margins="rect(4,4,4,4)"/>
			<v:textRect cx="9" cy="603" width="18.01" height="18"/>
			<rect x="0" y="594" width="18" height="18" class="st1"/>
			<text x="6.56" y="601.2" class="st3" v:langID="1033"><v:paragraph v:horizAlign="1"/><v:tabList/>9-<tspan x="5.96"
						dy="1.2em" class="st4">12</tspan></text>		</g>
		<g id="shape1014-119" v:mID="1014" v:groupContext="shape" transform="translate(171,-243)">
			<title>Sheet.1014</title>
			<desc>13-16</desc>
			<v:textBlock v:margins="rect(4,4,4,4)"/>
			<v:textRect cx="9" cy="603" width="18.01" height="18"/>
			<rect x="0" y="594" width="18" height="18" class="st1"/>
			<text x="5.04" y="601.2" class="st3" v:langID="1033"><v:paragraph v:horizAlign="1"/><v:tabList/>13-<tspan x="5.96"
						dy="1.2em" class="st4">16</tspan></text>		</g>
		<g id="shape1015-123" v:mID="1015" v:groupContext="shape" transform="translate(198,-243)">
			<title>Sheet.1015</title>
			<desc>17-20</desc>
			<v:textBlock v:margins="rect(4,4,4,4)"/>
			<v:textRect cx="9" cy="603" width="18.01" height="18"/>
			<rect x="0" y="594" width="18" height="18" class="st1"/>
			<text x="5.04" y="601.2" class="st3" v:langID="1033"><v:paragraph v:horizAlign="1"/><v:tabList/>17-<tspan x="5.96"
						dy="1.2em" class="st4">20</tspan></text>		</g>
		<g id="shape1016-127" v:mID="1016" v:groupContext="shape" transform="translate(261,-261)">
			<title>Sheet.1016</title>
			<desc>rtsw002</desc>
			<v:textBlock v:margins="rect(4,4,4,4)"/>
			<v:textRect cx="54" cy="589.5" width="108.01" height="45"/>
			<rect x="0" y="567" width="108" height="45" class="st1"/>
			<text x="34.14" y="593.1" class="st2" v:langID="1033"><v:paragraph v:horizAlign="1"/><v:tabList/>rtsw002</text>		</g>
		<g id="shape1017-130" v:mID="1017" v:groupContext="shape" transform="translate(252,-243)">
			<title>Sheet.1017</title>
			<desc>1-4</desc>
			<v:textBlock v:margins="rect(4,4,4,4)"/>
			<v:textRect cx="9" cy="603" width="18.01" height="18"/>
			<rect x="0" y="594" width="18" height="18" class="st1"/>
			<text x="5.04" y="604.8" class="st3" v:langID="1033"><v:paragraph v:horizAlign="1"/><v:tabList/>1-4</text>		</g>
		<g id="shape1018-133" v:mID="1018" v:groupContext="shape" transform="translate(279,-243)">
			<title>Sheet.1018</title>
			<desc>5-8</desc>
			<v:textBlock v:margins="rect(4,4,4,4)"/>
			<v:textRect cx="9" cy="603" width="18.01" height="18"/>
			<rect x="0" y="594" width="18" height="18" class="st1"/>
			<text x="5.04" y="604.8" class="st3" v:langID="1033"><v:paragraph v:horizAlign="1"/><v:tabList/>5-8</text>		</g>
		<g id="shape1019-136" v:mID="1019" v:groupContext="shape" transform="translate(306,-306)">
			<title>Sheet.1019</title>
			<desc>33-52</desc>
			<v:textBlock v:margins="rect(4,4,4,4)"/>
			<v:textRect cx="9" cy="603" width="18.01" height="18"/>
			<rect x="0" y="594" width="18" height="18" class="st1"/>
			<text x="5.04" y="601.2" class="st3" v:langID="1033"><v:paragraph v:horizAlign="1"/><v:tabList/>33-<tspan x="5.96"
						dy="1.2em" class="st4">52</tspan></text>		</g>
		<g id="shape1020-140" v:mID="1020" v:groupContext="shape" transform="translate(306,-243)">
			<title>Sheet.1020</title>
			<desc>9-12</desc>
			<v:textBlock v:margins="rect(4,4,4,4)"/>
			<v:textRect cx="9" cy="603" width="18.01" height="18"/>
			<rect x="0" y="594" width="18" height="18" class="st1"/>
			<text x="6.56" y="601.2" class="st3" v:langID="1033"><v:paragraph v:horizAlign="1"/><v:tabList/>9-<tspan x="5.96"
						dy="1.2em" class="st4">12</tspan></text>		</g>
		<g id="shape1021-144" v:mID="1021" v:groupContext="shape" transform="translate(333,-243)">
			<title>Sheet.1021</title>
			<desc>13-16</desc>
			<v:textBlock v:margins="rect(4,4,4,4)"/>
			<v:textRect cx="9" cy="603" width="18.01" height="18"/>
			<rect x="0" y="594" width="18" height="18" class="st1"/>
			<text x="5.04" y="601.2" class="st3" v:langID="1033"><v:paragraph v:horizAlign="1"/><v:tabList/>13-<tspan x="5.96"
						dy="1.2em" class="st4">16</tspan></text>		</g>
		<g id="shape1022-148" v:mID="1022" v:groupContext="shape" transform="translate(360,-243)">
			<title>Sheet.1022</title>
			<desc>17-20</desc>
			<v:textBlock v:margins="rect(4,4,4,4)"/>
			<v:textRect cx="9" cy="603" width="18.01" height="18"/>
			<rect x="0" y="594" width="18" height="18" class="st1"/>
			<text x="5.04" y="601.2" class="st3" v:langID="1033"><v:paragraph v:horizAlign="1"/><v:tabList/>17-<tspan x="5.96"
						dy="1.2em" class="st4">20</tspan></text>		</g>
		<g id="shape1023-152" v:mID="1023" v:groupContext="shape" transform="translate(423,-261)">
			<title>Sheet.1023</title>
			<desc>rtsw003</desc>
			<v:textBlock v:margins="rect(4,4,4,4)"/>
			<v:textRect cx="54" cy="589.5" width="108.01" height="45"/>
			<rect x="0" y="567" width="108" height="45" class="st1"/>
			<text x="34.14" y="593.1" class="st2" v:langID="1033"><v:paragraph v:horizAlign="1"/><v:tabList/>rtsw003</text>		</g>
		<g id="shape1024-155" v:mID="1024" v:groupContext="shape" transform="translate(414,-243)">
			<title>Sheet.1024</title>
			<desc>1-4</desc>
			<v:textBlock v:margins="rect(4,4,4,4)"/>
			<v:textRect cx="9" cy="603" width="18.01" height="18"/>
			<rect x="0" y="594" width="18" height="18" class="st1"/>
			<text x="5.04" y="604.8" class="st3" v:langID="1033"><v:paragraph v:horizAlign="1"/><v:tabList/>1-4</text>		</g>
		<g id="shape1025-158" v:mID="1025" v:groupContext="shape" transform="translate(441,-243)">
			<title>Sheet.1025</title>
			<desc>5-8</desc>
			<v:textBlock v:margins="rect(4,4,4,4)"/>
			<v:textRect cx="9" cy="603" width="18.01" height="18"/>
			<rect x="0" y="594" width="18" height="18" class="st1"/>
			<text x="5.04" y="604.8" class="st3" v:langID="1033"><v:paragraph v:horizAlign="1"/><v:tabList/>5-8</text>		</g>
		<g id="shape1026-161" v:mID="1026" v:groupContext="shape" transform="translate(468,-306)">
			<title>Sheet.1026</title>
			<desc>33-52</desc>
			<v:textBlock v:margins="rect(4,4,4,4)"/>
			<v:textRect cx="9" cy="603" width="18.01" height="18"/>
			<rect x="0" y="594" width="18" height="18" class="st1"/>
			<text x="5.04" y="601.2" class="st3" v:langID="1033"><v:paragraph v:horizAlign="1"/><v:tabList/>33-<tspan x="5.96"
						dy="1.2em" class="st4">52</tspan></text>		</g>
		<g id="shape1027-165" v:mID="1027" v:groupContext="shape" transform="translate(468,-243)">
			<title>Sheet.1027</title>
			<desc>9-12</desc>
			<v:textBlock v:margins="rect(4,4,4,4)"/>
			<v:textRect cx="9" cy="603" width="18.01" height="18"/>
			<rect x="0" y="594" width="18" height="18" class="st1"/>
			<text x="6.56" y="601.2" class="st3" v:langID="1033"><v:paragraph v:horizAlign="1"/><v:tabList/>9-<tspan x="5.96"
						dy="1.2em" class="st4">12</tspan></text>		</g>
		<g id="shape1028-169" v:mID="1028" v:groupContext="shape" transform="translate(495,-243)">
			<title>Sheet.1028</title>
			<desc>13-16</desc>
			<v:textBlock v:margins="rect(4,4,4,4)"/>
			<v:textRect cx="9" cy="603" width="18.01" height="18"/>
			<rect x="0" y="594" width="18" height="18" class="st1"/>
			<text x="5.04" y="601.2" class="st3" v:langID="1033"><v:paragraph v:horizAlign="1"/><v:tabList/>13-<tspan x="5.96"
						dy="1.2em" class="st4">16</tspan></text>		</g>
		<g id="shape1029-173" v:mID="1029" v:groupContext="shape" transform="translate(522,-243)">
			<title>Sheet.1029</title>
			<desc>17-20</desc>
			<v:textBlock v:margins="rect(4,4,4,4)"/>
			<v:textRect cx="9" cy="603" width="18.01" height="18"/>
			<rect x="0" y="594" width="18" height="18" class="st1"/>
			<text x="5.04" y="601.2" class="st3" v:langID="1033"><v:paragraph v:horizAlign="1"/><v:tabList/>17-<tspan x="5.96"
						dy="1.2em" class="st4">20</tspan></text>		</g>
		<g id="shape1030-177" v:mID="1030" v:groupContext="shape" transform="translate(585,-261)">
			<title>Sheet.1030</title>
			<desc>rtsw004</desc>
			<v:textBlock v:margins="rect(4,4,4,4)"/>
			<v:textRect cx="54" cy="589.5" width="108.01" height="45"/>
			<rect x="0" y="567" width="108" height="45" class="st1"/>
			<text x="34.14" y="593.1" class="st2" v:langID="1033"><v:paragraph v:horizAlign="1"/><v:tabList/>rtsw004</text>		</g>
		<g id="shape1031-180" v:mID="1031" v:groupContext="shape" transform="translate(576,-243)">
			<title>Sheet.1031</title>
			<desc>1-4</desc>
			<v:textBlock v:margins="rect(4,4,4,4)"/>
			<v:textRect cx="9" cy="603" width="18.01" height="18"/>
			<rect x="0" y="594" width="18" height="18" class="st1"/>
			<text x="5.04" y="604.8" class="st3" v:langID="1033"><v:paragraph v:horizAlign="1"/><v:tabList/>1-4</text>		</g>
		<g id="shape1032-183" v:mID="1032" v:groupContext="shape" transform="translate(603,-243)">
			<title>Sheet.1032</title>
			<desc>5-8</desc>
			<v:textBlock v:margins="rect(4,4,4,4)"/>
			<v:textRect cx="9" cy="603" width="18.01" height="18"/>
			<rect x="0" y="594" width="18" height="18" class="st1"/>
			<text x="5.04" y="604.8" class="st3" v:langID="1033"><v:paragraph v:horizAlign="1"/><v:tabList/>5-8</text>		</g>
		<g id="shape1033-186" v:mID="1033" v:groupContext="shape" transform="translate(630,-306)">
			<title>Sheet.1033</title>
			<desc>33-52</desc>
			<v:textBlock v:margins="rect(4,4,4,4)"/>
			<v:textRect cx="9" cy="603" width="18.01" height="18"/>
			<rect x="0" y="594" width="18" height="18" class="st1"/>
			<text x="5.04" y="601.2" class="st3" v:langID="1033"><v:paragraph v:horizAlign="1"/><v:tabList/>33-<tspan x="5.96"
						dy="1.2em" class="st4">52</tspan></text>		</g>
		<g id="shape1034-190" v:mID="1034" v:groupContext="shape" transform="translate(630,-243)">
			<title>Sheet.1034</title>
			<desc>9-12</desc>
			<v:textBlock v:margins="rect(4,4,4,4)"/>
			<v:textRect cx="9" cy="603" width="18.01" height="18"/>
			<rect x="0" y="594" width="18" height="18" class="st1"/>
			<text x="6.56" y="601.2" class="st3" v:langID="1033"><v:paragraph v:horizAlign="1"/><v:tabList/>9-<tspan x="5.96"
						dy="1.2em" class="st4">12</tspan></text>		</g>
		<g id="shape1035-194" v:mID="1035" v:groupContext="shape" transform="translate(657,-243)">
			<title>Sheet.1035</title>
			<desc>13-16</desc>
			<v:textBlock v:margins="rect(4,4,4,4)"/>
			<v:textRect cx="9" cy="603" width="18.01" height="18"/>
			<rect x="0" y="594" width="18" height="18" class="st1"/>
			<text x="5.04" y="601.2" class="st3" v:langID="1033"><v:paragraph v:horizAlign="1"/><v:tabList/>13-<tspan x="5.96"
						dy="1.2em" class="st4">16</tspan></text>		</g>
		<g id="shape1036-198" v:mID="1036" v:groupContext="shape" transform="translate(684,-243)">
			<title>Sheet.1036</title>
			<desc>17-20</desc>
			<v:textBlock v:margins="rect(4,4,4,4)"/>
			<v:textRect cx="9" cy="603" width="18.01" height="18"/>
			<rect x="0" y="594" width="18" height="18" class="st1"/>
			<text x="5.04" y="601.2" class="st3" v:langID="1033"><v:paragraph v:horizAlign="1"/><v:tabList/>17-<tspan x="5.96"
						dy="1.2em" class="st4">20</tspan></text>		</g>
		<g id="shape1037-202" v:mID="1037" v:groupContext="shape" transform="translate(-130.464,-366.671) rotate(-24.7751)">
			<title>Sheet.1037</title>
			<path d="M0 612 L128.86 612" class="st6"/>
		</g>
		<g id="shape1038-205" v:mID="1038" v:groupContext="shape" transform="translate(63.7066,-411.849) rotate(-10.9541)">
			<title>Sheet.1038</title>
			<path d="M0 612 L284.18 612" class="st6"/>
		</g>
		<g id="shape1039-208" v:mID="1039" v:groupContext="shape" transform="translate(-299.52,360.36) rotate(-106.26)">
			<title>Sheet.1039</title>
			<path d="M0 612 L56.25 612" class="st6"/>
		</g>
		<g id="shape1040-211" v:mID="1040" v:groupContext="shape" transform="translate(130.019,-385.115) rotate(-20.2657)">
			<title>Sheet.1040</title>
			<path d="M0 612 L155.9 612" class="st6"/>
		</g>
		<g id="shape1041-214" v:mID="1041" v:groupContext="shape" transform="translate(238.019,763.115) rotate(-159.734)">
			<title>Sheet.1041</title>
			<path d="M0 612 L155.9 612" class="st6"/>
		</g>
		<g id="shape1042-217" v:mID="1042" v:groupContext="shape" transform="translate(-83.52,17.64) rotate(-73.7398)">
			<title>Sheet.1042</title>
			<path d="M0 612 L56.25 612" class="st6"/>
		</g>
		<g id="shape1043-220" v:mID="1043" v:groupContext="shape" transform="translate(495.707,789.849) rotate(-169.046)">
			<title>Sheet.1043</title>
			<path d="M0 612 L284.18 612" class="st6"/>
		</g>
		<g id="shape1044-223" v:mID="1044" v:groupContext="shape" transform="translate(409.536,744.671) rotate(-155.225)">
			<title>Sheet.1044</title>
			<path d="M0 612 L128.86 612" class="st6"/>
		</g>
		<g id="shape1045-226" v:mID="1045" v:groupContext="shape" transform="translate(765,270) rotate(90)">
			<title>Sheet.1045</title>
			<path d="M0 612 L18 612" class="st6"/>
		</g>
		<g id="shape1046-229" v:mID="1046" v:groupContext="shape" transform="translate(927,270) rotate(90)">
			<title>Sheet.1046</title>
			<path d="M0 612 L18 612" class="st6"/>
		</g>
		<g id="shape1047-232" v:mID="1047" v:groupContext="shape" transform="translate(1089,270) rotate(90)">
			<title>Sheet.1047</title>
			<path d="M0 612 L18 612" class="st6"/>
		</g>
		<g id="shape1048-235" v:mID="1048" v:groupContext="shape" transform="translate(1251,270) rotate(90)">
			<title>Sheet.1048</title>
			<path d="M0 612 L18 612" class="st6"/>
		</g>
		<g id="shape1049-238" v:mID="1049" v:groupContext="shape" transform="translate(729,414) rotate(90)">
			<title>Sheet.1049</title>
			<desc>GT002</desc>
			<v:textBlock v:margins="rect(4,4,4,4)"/>
			<v:textRect cx="27" cy="603" width="54.01" height="18"/>
			<rect x="0" y="594" width="54" height="18" class="st1"/>
			<text x="13.81" y="606" class="st5" v:langID="1033"><v:paragraph v:horizAlign="1"/><v:tabList/>GT002</text>		</g>
		<g id="shape1050-241" v:mID="1050" v:groupContext="shape" transform="translate(756,414) rotate(90)">
			<title>Sheet.1050</title>
			<desc>GT003</desc>
			<v:textBlock v:margins="rect(4,4,4,4)"/>
			<v:textRect cx="27" cy="603" width="54.01" height="18"/>
			<rect x="0" y="594" width="54" height="18" class="st1"/>
			<text x="13.81" y="606" class="st5" v:langID="1033"><v:paragraph v:horizAlign="1"/><v:tabList/>GT003</text>		</g>
		<g id="shape1051-244" v:mID="1051" v:groupContext="shape" transform="translate(783,414) rotate(90)">
			<title>Sheet.1051</title>
			<desc>GT004</desc>
			<v:textBlock v:margins="rect(4,4,4,4)"/>
			<v:textRect cx="27" cy="603" width="54.01" height="18"/>
			<rect x="0" y="594" width="54" height="18" class="st1"/>
			<text x="13.81" y="606" class="st5" v:langID="1033"><v:paragraph v:horizAlign="1"/><v:tabList/>GT004</text>		</g>
		<g id="shape1052-247" v:mID="1052" v:groupContext="shape" transform="translate(810,414) rotate(90)">
			<title>Sheet.1052</title>
			<desc>GT005</desc>
			<v:textBlock v:margins="rect(4,4,4,4)"/>
			<v:textRect cx="27" cy="603" width="54.01" height="18"/>
			<rect x="0" y="594" width="54" height="18" class="st1"/>
			<text x="13.81" y="606" class="st5" v:langID="1033"><v:paragraph v:horizAlign="1"/><v:tabList/>GT005</text>		</g>
		<g id="shape1053-250" v:mID="1053" v:groupContext="shape" transform="translate(-513,414) rotate(-90)">
			<title>Sheet.1053</title>
			<path d="M0 612 L45 612" class="st6"/>
		</g>
		<g id="shape1054-253" v:mID="1054" v:groupContext="shape" transform="translate(-486,414) rotate(-90)">
			<title>Sheet.1054</title>
			<path d="M0 612 L45 612" class="st6"/>
		</g>
		<g id="shape1055-256" v:mID="1055" v:groupContext="shape" transform="translate(-459,414) rotate(-90)">
			<title>Sheet.1055</title>
			<path d="M0 612 L45 612" class="st6"/>
		</g>
		<g id="shape1056-259" v:mID="1056" v:groupContext="shape" transform="translate(-432,414) rotate(-90)">
			<title>Sheet.1056</title>
			<path d="M0 612 L45 612" class="st6"/>
		</g>
		<g id="shape1057-262" v:mID="1057" v:groupContext="shape" transform="translate(-405,414) rotate(-90)">
			<title>Sheet.1057</title>
			<path d="M0 612 L45 612" class="st6"/>
		</g>
		<g id="shape1058-265" v:mID="1058" v:groupContext="shape" transform="translate(864,414) rotate(90)">
			<title>Sheet.1058</title>
			<desc>GT006</desc>
			<v:textBlock v:margins="rect(4,4,4,4)"/>
			<v:textRect cx="27" cy="603" width="54.01" height="18"/>
			<rect x="0" y="594" width="54" height="18" class="st1"/>
			<text x="13.81" y="606" class="st5" v:langID="1033"><v:paragraph v:horizAlign="1"/><v:tabList/>GT006</text>		</g>
		<g id="shape1059-268" v:mID="1059" v:groupContext="shape" transform="translate(891,414) rotate(90)">
			<title>Sheet.1059</title>
			<desc>GT007</desc>
			<v:textBlock v:margins="rect(4,4,4,4)"/>
			<v:textRect cx="27" cy="603" width="54.01" height="18"/>
			<rect x="0" y="594" width="54" height="18" class="st1"/>
			<text x="13.81" y="606" class="st5" v:langID="1033"><v:paragraph v:horizAlign="1"/><v:tabList/>GT007</text>		</g>
		<g id="shape1060-271" v:mID="1060" v:groupContext="shape" transform="translate(918,414) rotate(90)">
			<title>Sheet.1060</title>
			<desc>GT008</desc>
			<v:textBlock v:margins="rect(4,4,4,4)"/>
			<v:textRect cx="27" cy="603" width="54.01" height="18"/>
			<rect x="0" y="594" width="54" height="18" class="st1"/>
			<text x="13.81" y="606" class="st5" v:langID="1033"><v:paragraph v:horizAlign="1"/><v:tabList/>GT008</text>		</g>
		<g id="shape1061-274" v:mID="1061" v:groupContext="shape" transform="translate(945,414) rotate(90)">
			<title>Sheet.1061</title>
			<desc>GT009</desc>
			<v:textBlock v:margins="rect(4,4,4,4)"/>
			<v:textRect cx="27" cy="603" width="54.01" height="18"/>
			<rect x="0" y="594" width="54" height="18" class="st1"/>
			<text x="13.81" y="606" class="st5" v:langID="1033"><v:paragraph v:horizAlign="1"/><v:tabList/>GT009</text>		</g>
		<g id="shape1062-277" v:mID="1062" v:groupContext="shape" transform="translate(972,414) rotate(90)">
			<title>Sheet.1062</title>
			<desc>GT010</desc>
			<v:textBlock v:margins="rect(4,4,4,4)"/>
			<v:textRect cx="27" cy="603" width="54.01" height="18"/>
			<rect x="0" y="594" width="54" height="18" class="st1"/>
			<text x="13.81" y="606" class="st5" v:langID="1033"><v:paragraph v:horizAlign="1"/><v:tabList/>GT010</text>		</g>
		<g id="shape1063-280" v:mID="1063" v:groupContext="shape" transform="translate(-351,414) rotate(-90)">
			<title>Sheet.1063</title>
			<path d="M0 612 L45 612" class="st6"/>
		</g>
		<g id="shape1064-283" v:mID="1064" v:groupContext="shape" transform="translate(-324,414) rotate(-90)">
			<title>Sheet.1064</title>
			<path d="M0 612 L45 612" class="st6"/>
		</g>
		<g id="shape1065-286" v:mID="1065" v:groupContext="shape" transform="translate(-297,414) rotate(-90)">
			<title>Sheet.1065</title>
			<path d="M0 612 L45 612" class="st6"/>
		</g>
		<g id="shape1066-289" v:mID="1066" v:groupContext="shape" transform="translate(-270,414) rotate(-90)">
			<title>Sheet.1066</title>
			<path d="M0 612 L45 612" class="st6"/>
		</g>
		<g id="shape1067-292" v:mID="1067" v:groupContext="shape" transform="translate(-243,414) rotate(-90)">
			<title>Sheet.1067</title>
			<path d="M0 612 L45 612" class="st6"/>
		</g>
		<g id="shape1068-295" v:mID="1068" v:groupContext="shape" transform="translate(1026,414) rotate(90)">
			<title>Sheet.1068</title>
			<desc>GT011</desc>
			<v:textBlock v:margins="rect(4,4,4,4)"/>
			<v:textRect cx="27" cy="603" width="54.01" height="18"/>
			<rect x="0" y="594" width="54" height="18" class="st1"/>
			<text x="13.81" y="606" class="st5" v:langID="1033"><v:paragraph v:horizAlign="1"/><v:tabList/>GT011</text>		</g>
		<g id="shape1069-298" v:mID="1069" v:groupContext="shape" transform="translate(1053,414) rotate(90)">
			<title>Sheet.1069</title>
			<desc>GT012</desc>
			<v:textBlock v:margins="rect(4,4,4,4)"/>
			<v:textRect cx="27" cy="603" width="54.01" height="18"/>
			<rect x="0" y="594" width="54" height="18" class="st1"/>
			<text x="13.81" y="606" class="st5" v:langID="1033"><v:paragraph v:horizAlign="1"/><v:tabList/>GT012</text>		</g>
		<g id="shape1070-301" v:mID="1070" v:groupContext="shape" transform="translate(1080,414) rotate(90)">
			<title>Sheet.1070</title>
			<desc>GT013</desc>
			<v:textBlock v:margins="rect(4,4,4,4)"/>
			<v:textRect cx="27" cy="603" width="54.01" height="18"/>
			<rect x="0" y="594" width="54" height="18" class="st1"/>
			<text x="13.81" y="606" class="st5" v:langID="1033"><v:paragraph v:horizAlign="1"/><v:tabList/>GT013</text>		</g>
		<g id="shape1071-304" v:mID="1071" v:groupContext="shape" transform="translate(1107,414) rotate(90)">
			<title>Sheet.1071</title>
			<desc>GT014</desc>
			<v:textBlock v:margins="rect(4,4,4,4)"/>
			<v:textRect cx="27" cy="603" width="54.01" height="18"/>
			<rect x="0" y="594" width="54" height="18" class="st1"/>
			<text x="13.81" y="606" class="st5" v:langID="1033"><v:paragraph v:horizAlign="1"/><v:tabList/>GT014</text>		</g>
		<g id="shape1072-307" v:mID="1072" v:groupContext="shape" transform="translate(1134,414) rotate(90)">
			<title>Sheet.1072</title>
			<desc>GT015</desc>
			<v:textBlock v:margins="rect(4,4,4,4)"/>
			<v:textRect cx="27" cy="603" width="54.01" height="18"/>
			<rect x="0" y="594" width="54" height="18" class="st1"/>
			<text x="13.81" y="606" class="st5" v:langID="1033"><v:paragraph v:horizAlign="1"/><v:tabList/>GT015</text>		</g>
		<g id="shape1073-310" v:mID="1073" v:groupContext="shape" transform="translate(-189,414) rotate(-90)">
			<title>Sheet.1073</title>
			<path d="M0 612 L45 612" class="st6"/>
		</g>
		<g id="shape1074-313" v:mID="1074" v:groupContext="shape" transform="translate(-162,414) rotate(-90)">
			<title>Sheet.1074</title>
			<path d="M0 612 L45 612" class="st6"/>
		</g>
		<g id="shape1075-316" v:mID="1075" v:groupContext="shape" transform="translate(-135,414) rotate(-90)">
			<title>Sheet.1075</title>
			<path d="M0 612 L45 612" class="st6"/>
		</g>
		<g id="shape1076-319" v:mID="1076" v:groupContext="shape" transform="translate(-108,414) rotate(-90)">
			<title>Sheet.1076</title>
			<path d="M0 612 L45 612" class="st6"/>
		</g>
		<g id="shape1077-322" v:mID="1077" v:groupContext="shape" transform="translate(-81,414) rotate(-90)">
			<title>Sheet.1077</title>
			<path d="M0 612 L45 612" class="st6"/>
		</g>
		<g id="shape1078-325" v:mID="1078" v:groupContext="shape" transform="translate(1188,414) rotate(90)">
			<title>Sheet.1078</title>
			<desc>GT016</desc>
			<v:textBlock v:margins="rect(4,4,4,4)"/>
			<v:textRect cx="27" cy="603" width="54.01" height="18"/>
			<rect x="0" y="594" width="54" height="18" class="st1"/>
			<text x="13.81" y="606" class="st5" v:langID="1033"><v:paragraph v:horizAlign="1"/><v:tabList/>GT016</text>		</g>
		<g id="shape1079-328" v:mID="1079" v:groupContext="shape" transform="translate(1215,414) rotate(90)">
			<title>Sheet.1079</title>
			<desc>GT017</desc>
			<v:textBlock v:margins="rect(4,4,4,4)"/>
			<v:textRect cx="27" cy="603" width="54.01" height="18"/>
			<rect x="0" y="594" width="54" height="18" class="st1"/>
			<text x="13.81" y="606" class="st5" v:langID="1033"><v:paragraph v:horizAlign="1"/><v:tabList/>GT017</text>		</g>
		<g id="shape1080-331" v:mID="1080" v:groupContext="shape" transform="translate(1242,414) rotate(90)">
			<title>Sheet.1080</title>
			<desc>GT018</desc>
			<v:textBlock v:margins="rect(4,4,4,4)"/>
			<v:textRect cx="27" cy="603" width="54.01" height="18"/>
			<rect x="0" y="594" width="54" height="18" class="st1"/>
			<text x="13.81" y="606" class="st5" v:langID="1033"><v:paragraph v:horizAlign="1"/><v:tabList/>GT018</text>		</g>
		<g id="shape1081-334" v:mID="1081" v:groupContext="shape" transform="translate(1269,414) rotate(90)">
			<title>Sheet.1081</title>
			<desc>GT019</desc>
			<v:textBlock v:margins="rect(4,4,4,4)"/>
			<v:textRect cx="27" cy="603" width="54.01" height="18"/>
			<rect x="0" y="594" width="54" height="18" class="st1"/>
			<text x="13.81" y="606" class="st5" v:langID="1033"><v:paragraph v:horizAlign="1"/><v:tabList/>GT019</text>		</g>
		<g id="shape1082-337" v:mID="1082" v:groupContext="shape" transform="translate(1296,414) rotate(90)">
			<title>Sheet.1082</title>
			<desc>GT020</desc>
			<v:textBlock v:margins="rect(4,4,4,4)"/>
			<v:textRect cx="27" cy="603" width="54.01" height="18"/>
			<rect x="0" y="594" width="54" height="18" class="st1"/>
			<text x="13.81" y="606" class="st5" v:langID="1033"><v:paragraph v:horizAlign="1"/><v:tabList/>GT020</text>		</g>
		<g id="shape1083-340" v:mID="1083" v:groupContext="shape" transform="translate(-27,414) rotate(-90)">
			<title>Sheet.1083</title>
			<path d="M0 612 L45 612" class="st6"/>
		</g>
		<g id="shape1084-343" v:mID="1084" v:groupContext="shape" transform="translate(1.45912E-05,414) rotate(-90)">
			<title>Sheet.1084</title>
			<path d="M0 612 L45 612" class="st6"/>
		</g>
		<g id="shape1085-346" v:mID="1085" v:groupContext="shape" transform="translate(27,414) rotate(-90)">
			<title>Sheet.1085</title>
			<path d="M0 612 L45 612" class="st6"/>
		</g>
		<g id="shape1086-349" v:mID="1086" v:groupContext="shape" transform="translate(54,414) rotate(-90)">
			<title>Sheet.1086</title>
			<path d="M0 612 L45 612" class="st6"/>
		</g>
		<g id="shape1087-352" v:mID="1087" v:groupContext="shape" transform="translate(81,414) rotate(-90)">
			<title>Sheet.1087</title>
			<path d="M0 612 L45 612" class="st6"/>
		</g>
	</g>
</svg>
